<svg xmlns="http://www.w3.org/2000/svg" width="217.502" height="40.069" viewBox="0 0 217.502 40.069">
  <g id="DigiReprting-BrandTEXT" transform="translate(-313.462 -465.153)">
    <g id="Groupe_3" data-name="Groupe 3" transform="translate(380.96 485.188)">
      <path id="Tracé_6" data-name="Tracé 6" d="M648.305,572.619a5.773,5.773,0,0,1,1.972,2.592,9.551,9.551,0,0,1,.64,3.548,9.7,9.7,0,0,1-.64,3.619,5.611,5.611,0,0,1-1.962,2.552,5.518,5.518,0,0,1-3.294.945h-5.286a.417.417,0,0,1-.407-.406V572.049a.416.416,0,0,1,.407-.406h5.286A5.4,5.4,0,0,1,648.305,572.619Zm.458,10.7a7.426,7.426,0,0,0,1.3-4.565,8.636,8.636,0,0,0-.559-3.161,5.022,5.022,0,0,0-1.728-2.287,4.886,4.886,0,0,0-2.958-.854h-4.636v12.605h4.636A4.61,4.61,0,0,0,648.763,583.323Z" transform="translate(-639.329 -571.44)"/>
      <path id="Tracé_7" data-name="Tracé 7" d="M712.653,585.753a.391.391,0,0,1-.285.122.406.406,0,0,1-.315-.122.434.434,0,0,1-.112-.305V572.07a.427.427,0,1,1,.854,0v13.378A.5.5,0,0,1,712.653,585.753Z" transform="translate(-697.303 -571.44)"/>
      <path id="Tracé_8" data-name="Tracé 8" d="M742.964,578.177a.409.409,0,0,1,.112.285v5.1a.411.411,0,0,1-.183.366,8.013,8.013,0,0,1-2.043.986,7.314,7.314,0,0,1-2.247.356,7.436,7.436,0,0,1-3.751-.945,6.838,6.838,0,0,1-2.6-2.613,7.956,7.956,0,0,1,0-7.523,6.838,6.838,0,0,1,2.6-2.613,7.434,7.434,0,0,1,3.751-.945,8.36,8.36,0,0,1,2.165.274,6.061,6.061,0,0,1,1.84.824.391.391,0,0,1,.183.346.368.368,0,0,1-.132.295.4.4,0,0,1-.254.112.628.628,0,0,1-.264-.081,7.154,7.154,0,0,0-3.538-.956,6.619,6.619,0,0,0-3.334.834,5.927,5.927,0,0,0-2.287,2.318,7.245,7.245,0,0,0,0,6.709,5.923,5.923,0,0,0,2.287,2.318,6.617,6.617,0,0,0,3.334.834,6.481,6.481,0,0,0,1.9-.295,7.531,7.531,0,0,0,1.759-.783v-4.514H738.6a.417.417,0,0,1-.407-.407.38.38,0,0,1,.122-.295.408.408,0,0,1,.285-.112h4.066A.381.381,0,0,1,742.964,578.177Z" transform="translate(-712.762 -570.634)"/>
      <path id="Tracé_9" data-name="Tracé 9" d="M807.049,585.753a.391.391,0,0,1-.285.122.406.406,0,0,1-.315-.122.433.433,0,0,1-.112-.305V572.07a.427.427,0,1,1,.854,0v13.378A.5.5,0,0,1,807.049,585.753Z" transform="translate(-772.669 -571.44)"/>
      <path id="Tracé_10" data-name="Tracé 10" d="M839.8,584.309a1.085,1.085,0,0,1,.152.549,1.049,1.049,0,0,1-.244.671,1.149,1.149,0,0,1-.935.366,1.82,1.82,0,0,1-.894-.224q-1.464-.833-1.464-3.4a1.477,1.477,0,0,0-.478-1.159,1.994,1.994,0,0,0-1.372-.427h-3.8v3.944a1.331,1.331,0,0,1-.295.895.976.976,0,0,1-.783.346,1.576,1.576,0,0,1-1.027-.356,1.1,1.1,0,0,1-.437-.885V572.883a1.215,1.215,0,0,1,1.24-1.24h5.856a3.773,3.773,0,0,1,1.993.569,4.209,4.209,0,0,1,1.494,1.565,4.494,4.494,0,0,1,.559,2.237,3.965,3.965,0,0,1-.549,1.983,4.375,4.375,0,0,1-1.423,1.535,3.116,3.116,0,0,1,1.4,2.4,3.435,3.435,0,0,1,.061.63,6.44,6.44,0,0,0,.163.9.668.668,0,0,0,.366.417A1.207,1.207,0,0,1,839.8,584.309Zm-3.873-6.059a2.632,2.632,0,0,0,.57-.925,3.446,3.446,0,0,0,.224-1.251,2.441,2.441,0,0,0-.224-1.047,2.156,2.156,0,0,0-.57-.763,1.112,1.112,0,0,0-.711-.285h-4.453V578.6h4.453A1.012,1.012,0,0,0,835.926,578.251Z" transform="translate(-790.14 -571.44)"/>
      <path id="Tracé_11" data-name="Tracé 11" d="M906.441,583.893a1.131,1.131,0,0,1,.356.823,1.079,1.079,0,0,1-.356.834,1.261,1.261,0,0,1-.884.325h-6.811a1.216,1.216,0,0,1-1.24-1.24V572.883a1.216,1.216,0,0,1,1.24-1.24h6.811a1.239,1.239,0,0,1,.884.335,1.135,1.135,0,0,1,.356.864,1.062,1.062,0,0,1-.346.823,1.275,1.275,0,0,1-.895.315h-5.51v3.457h4.595a1.24,1.24,0,0,1,.885.335,1.135,1.135,0,0,1,.356.864,1.062,1.062,0,0,1-.346.823,1.275,1.275,0,0,1-.895.315h-4.595v3.762h5.51A1.2,1.2,0,0,1,906.441,583.893Z" transform="translate(-845.458 -571.44)"/>
      <path id="Tracé_12" data-name="Tracé 12" d="M963.04,572.263a4.593,4.593,0,0,1,1.5,1.667,4.859,4.859,0,0,1,0,4.565,4.572,4.572,0,0,1-1.5,1.677,3.51,3.51,0,0,1-1.972.62H957.53v3.843a1.253,1.253,0,0,1-.325.895,1.118,1.118,0,0,1-.854.346,1.078,1.078,0,0,1-.833-.356,1.26,1.26,0,0,1-.326-.885V572.883a1.216,1.216,0,0,1,1.24-1.24h4.636A3.512,3.512,0,0,1,963.04,572.263Zm-1.21,5.886a2.4,2.4,0,0,0,.61-.844,2.645,2.645,0,0,0,0-2.175,2.3,2.3,0,0,0-.61-.833,1.186,1.186,0,0,0-.762-.315H957.53v4.493h3.538A1.166,1.166,0,0,0,961.83,578.149Z" transform="translate(-891.515 -571.44)"/>
      <path id="Tracé_13" data-name="Tracé 13" d="M1025.387,581.643a6.854,6.854,0,0,1-2.47,2.653,6.937,6.937,0,0,1-7.1,0,6.775,6.775,0,0,1-2.46-2.653,8.143,8.143,0,0,1,0-7.38,6.776,6.776,0,0,1,2.46-2.653,6.937,6.937,0,0,1,7.1,0,6.854,6.854,0,0,1,2.47,2.653,8.057,8.057,0,0,1,0,7.38Zm-2.3-6.16a4.432,4.432,0,0,0-1.525-1.759,4.075,4.075,0,0,0-4.4-.01,4.3,4.3,0,0,0-1.5,1.759,5.977,5.977,0,0,0,0,4.961,4.3,4.3,0,0,0,1.5,1.759,4.075,4.075,0,0,0,4.4-.01,4.427,4.427,0,0,0,1.525-1.759,5.832,5.832,0,0,0,0-4.94Z" transform="translate(-937.252 -570.634)"/>
      <path id="Tracé_14" data-name="Tracé 14" d="M1104.131,584.309a1.085,1.085,0,0,1,.152.549,1.049,1.049,0,0,1-.244.671,1.148,1.148,0,0,1-.935.366,1.821,1.821,0,0,1-.895-.224q-1.464-.833-1.464-3.4a1.477,1.477,0,0,0-.478-1.159,1.994,1.994,0,0,0-1.372-.427h-3.8v3.944a1.331,1.331,0,0,1-.3.895.976.976,0,0,1-.783.346,1.576,1.576,0,0,1-1.026-.356,1.1,1.1,0,0,1-.437-.885V572.883a1.215,1.215,0,0,1,1.24-1.24h5.855a3.773,3.773,0,0,1,1.993.569,4.208,4.208,0,0,1,1.494,1.565,4.492,4.492,0,0,1,.559,2.237,3.966,3.966,0,0,1-.549,1.983,4.373,4.373,0,0,1-1.423,1.535,3.116,3.116,0,0,1,1.4,2.4,3.419,3.419,0,0,1,.061.63,6.447,6.447,0,0,0,.163.9.668.668,0,0,0,.366.417A1.2,1.2,0,0,1,1104.131,584.309Zm-3.873-6.059a2.632,2.632,0,0,0,.569-.925,3.445,3.445,0,0,0,.224-1.251,2.44,2.44,0,0,0-.224-1.047,2.156,2.156,0,0,0-.569-.763,1.113,1.113,0,0,0-.711-.285h-4.453V578.6h4.453A1.012,1.012,0,0,0,1100.258,578.251Z" transform="translate(-1001.184 -571.44)"/>
      <path id="Tracé_15" data-name="Tracé 15" d="M1166.949,571.968a1.119,1.119,0,0,1,.346.854,1.086,1.086,0,0,1-.346.844,1.274,1.274,0,0,1-.895.315h-3.192v10.654a1.154,1.154,0,0,1-.386.885,1.359,1.359,0,0,1-.955.356,1.286,1.286,0,0,1-.935-.356,1.184,1.184,0,0,1-.366-.885V573.981h-3.192a1.252,1.252,0,0,1-.894-.325,1.116,1.116,0,0,1-.346-.854,1.079,1.079,0,0,1,.356-.834,1.262,1.262,0,0,1,.884-.325h9.027A1.254,1.254,0,0,1,1166.949,571.968Z" transform="translate(-1051.671 -571.44)"/>
      <path id="Tracé_16" data-name="Tracé 16" d="M1225.613,585.519a1.28,1.28,0,0,1-.895.356,1.225,1.225,0,0,1-.9-.356,1.2,1.2,0,0,1-.356-.885V572.883a1.185,1.185,0,0,1,.366-.884,1.287,1.287,0,0,1,.936-.356,1.211,1.211,0,0,1,.874.356,1.184,1.184,0,0,1,.366.884v11.752A1.153,1.153,0,0,1,1225.613,585.519Z" transform="translate(-1105.7 -571.44)"/>
      <path id="Tracé_17" data-name="Tracé 17" d="M1262.78,571.968a1.143,1.143,0,0,1,.3.813v11.853a1.215,1.215,0,0,1-1.24,1.24,1.754,1.754,0,0,1-.559-.091.788.788,0,0,1-.4-.254l-7.462-9.474v8.682a1.123,1.123,0,0,1-.315.813,1.1,1.1,0,0,1-.823.325,1.037,1.037,0,0,1-.793-.325,1.143,1.143,0,0,1-.305-.813V572.883a1.215,1.215,0,0,1,1.24-1.24,1.558,1.558,0,0,1,.6.122.967.967,0,0,1,.437.325l7.4,9.434v-8.743a1.122,1.122,0,0,1,.315-.813,1.071,1.071,0,0,1,.8-.325A1.038,1.038,0,0,1,1262.78,571.968Z" transform="translate(-1127.842 -571.44)"/>
      <path id="Tracé_18" data-name="Tracé 18" d="M1333.865,577.74a1.22,1.22,0,0,1,.346.884v4.31a1.219,1.219,0,0,1-.63,1.1,8.113,8.113,0,0,1-4.371,1.24,7.309,7.309,0,0,1-3.721-.986,7.384,7.384,0,0,1-2.7-2.663,7.259,7.259,0,0,1,0-7.34,7.453,7.453,0,0,1,6.425-3.649,7.169,7.169,0,0,1,3.5.813,1.1,1.1,0,0,1,.61,1,1.286,1.286,0,0,1-.335.885,1.061,1.061,0,0,1-.823.376,1.665,1.665,0,0,1-.671-.162,5.757,5.757,0,0,0-2.277-.468,4.57,4.57,0,0,0-2.4.661,4.924,4.924,0,0,0,0,8.438,4.565,4.565,0,0,0,2.4.661,7.915,7.915,0,0,0,1.22-.1,7.05,7.05,0,0,0,1.139-.265v-2.643h-1.911a1.219,1.219,0,0,1-.884-.346,1.252,1.252,0,0,1,0-1.749,1.219,1.219,0,0,1,.884-.346h3.334A1.168,1.168,0,0,1,1333.865,577.74Z" transform="translate(-1184.207 -570.634)"/>
    </g>
    <g id="Groupe_5" data-name="Groupe 5" transform="translate(313.462 465.153)">
      <g id="Groupe_4" data-name="Groupe 4" transform="translate(23.048 23.192)">
        <path id="Tracé_19" data-name="Tracé 19" d="M450.238,586.9,449.726,580a2.593,2.593,0,0,0-2.783-2.394l-6.995.533a2.593,2.593,0,1,0,.394,5.172l.823-.063-3.412,4.388.009-.014-.016.023-.051.066a2.24,2.24,0,0,1-3.533-.1l.015.023-7.3-9.945-4.18,3.07,8.18,11.138a6.759,6.759,0,0,0,10.28-.184l.156-.2.018-.026-.017.023,3.714-4.777.041.557a2.593,2.593,0,0,0,2.583,2.4c.064,0,.129,0,.194-.007A2.593,2.593,0,0,0,450.238,586.9Z" transform="translate(-422.693 -577.595)" fill="#550a8a"/>
        <path id="Tracé_20" data-name="Tracé 20" d="M501.83,630.19l.007-.011Z" transform="translate(-486.76 -620.166)" fill="#550a8a"/>
      </g>
      <path id="Tracé_21" data-name="Tracé 21" d="M397.908,511.568h0a11.21,11.21,0,0,0-5.755-1.592h-5.981v5.187h-5.185v12.459h11.206a9.369,9.369,0,0,0,7.359-2.945,8.73,8.73,0,0,0,2.134-5.818A8.091,8.091,0,0,0,397.908,511.568Zm-5.715,10.87h-6.02v-7.275h5.964a6.275,6.275,0,0,1,2.83.677,3.022,3.022,0,0,1,1.533,3.021C396.5,520.2,395.941,522.438,392.193,522.438Z" transform="translate(-365.88 -499.66)" fill="#550a8a"/>
      <path id="Tracé_22" data-name="Tracé 22" d="M320.714,560.089a5.01,5.01,0,0,0,1.235-3.154v-19.72h-5.187v7.273h-5.527c-.9-.042-5.567-.074-8.051,3.581l-.038.057a8.611,8.611,0,0,0-1.49,4.818v.019a8.228,8.228,0,0,0,1.79,5.547,9.45,9.45,0,0,0,7.535,3.268l5.995,0A5.025,5.025,0,0,0,320.714,560.089Zm-3.951-8.966v3.4a2.113,2.113,0,0,1-2.351,2.066h-3.43a4.453,4.453,0,0,1-3.515-1.36,3.124,3.124,0,0,1-.623-2.269v-.019a3.326,3.326,0,0,1,.648-1.985c.938-1.336,3.347-1.295,3.515-1.29l5.757,0Z" transform="translate(-301.656 -521.713)" fill="#6a0cac"/>
      <rect id="Rectangle_5" data-name="Rectangle 5" width="5.204" height="5.204" transform="translate(10.217 5.036)" fill="#6a0dad"/>
      <rect id="Rectangle_6" data-name="Rectangle 6" width="3.387" height="3.387" transform="translate(20.001 1.032) rotate(90)" fill="#6a0dad"/>
      <rect id="Rectangle_7" data-name="Rectangle 7" width="2.534" height="2.534" transform="translate(11.199 0) rotate(90)" fill="#6a0dad"/>
      <path id="Tracé_23" data-name="Tracé 23" d="M374.412,575.491l-1.546,5.12h1.546Z" transform="translate(-359.306 -552.7)" fill="#550a8a"/>
    </g>
  </g>
</svg>
