<svg xmlns="http://www.w3.org/2000/svg" width="88.913" height="70.406" viewBox="0 0 88.913 70.406">
  <g id="DigiReporting-Brand" transform="translate(-411.84 -164.981)">
    <g id="Groupe_2" data-name="Groupe 2" transform="translate(411.84 164.981)">
      <g id="Groupe_1" data-name="Groupe 1" transform="translate(40.5 40.751)">
        <path id="Tracé_1" data-name="Tracé 1" d="M766.309,369.243l-.9-12.138a4.557,4.557,0,0,0-4.891-4.207l-12.291.937a4.557,4.557,0,1,0,.692,9.087l1.445-.11-5.994,7.71.016-.024-.029.04-.089.115a3.935,3.935,0,0,1-6.208-.174l.026.04-12.834-17.475-7.345,5.395,14.373,19.571a11.877,11.877,0,0,0,18.064-.323l.274-.352.032-.045-.029.041,6.525-8.393.073.979a4.557,4.557,0,0,0,4.54,4.22c.113,0,.227,0,.341-.013A4.557,4.557,0,0,0,766.309,369.243Z" transform="translate(-717.909 -352.884)" fill="#550a8a"/>
        <path id="Tracé_2" data-name="Tracé 2" d="M840,434.032l.013-.019Z" transform="translate(-813.525 -416.418)" fill="#550a8a"/>
      </g>
      <path id="Tracé_3" data-name="Tracé 3" d="M683.3,251.357h0c-3.823-2.631-9.074-2.792-10.112-2.8h-10.51v9.114h-9.111v21.892l4.555,0s5.909,0,15.136,0c6.895,0,10.838-2.814,12.932-5.176a15.34,15.34,0,0,0,3.75-10.224C689.936,258.47,687.888,254.518,683.3,251.357Zm-10.042,19.1H662.676V257.673h10.48a11.028,11.028,0,0,1,4.973,1.19c1.862,1.282,2.693,2.353,2.693,5.308C680.822,266.519,679.839,270.457,673.254,270.457Z" transform="translate(-627.018 -230.434)" fill="#550a8a"/>
      <path id="Tracé_4" data-name="Tracé 4" d="M564.654,330.777a8.805,8.805,0,0,0,2.171-5.541V290.585h-9.113v12.781H548c-1.579-.074-9.782-.131-14.147,6.292l-.067.1a15.132,15.132,0,0,0-2.618,8.466v.033A14.458,14.458,0,0,0,534.312,328c3.02,3.7,7.722,5.743,13.24,5.743,2.472,0,7.12,0,10.533,0A8.829,8.829,0,0,0,564.654,330.777Zm-6.943-15.755V321c-.019.643-.32,3.563-4.132,3.63l-6.028,0c-1.929,0-4.567-.414-6.177-2.389a5.488,5.488,0,0,1-1.094-3.986v-.034a5.842,5.842,0,0,1,1.139-3.487c1.648-2.348,5.881-2.275,6.176-2.266l10.116.008Z" transform="translate(-531.167 -263.345)" fill="#6a0cac"/>
      <rect id="Rectangle_2" data-name="Rectangle 2" width="9.144" height="9.144" transform="translate(17.954 8.85)" fill="#6a0dad"/>
      <rect id="Rectangle_3" data-name="Rectangle 3" width="5.952" height="5.952" transform="translate(35.145 1.813) rotate(90)" fill="#6a0dad"/>
      <rect id="Rectangle_4" data-name="Rectangle 4" width="4.453" height="4.453" transform="translate(19.678 0) rotate(90)" fill="#6a0dad"/>
      <path id="Tracé_5" data-name="Tracé 5" d="M643.75,349.638l-2.716,9h2.716Z" transform="translate(-617.206 -309.591)" fill="#550a8a"/>
    </g>
  </g>
</svg>
