<svg xmlns="http://www.w3.org/2000/svg" width="500" height="361.354" viewBox="0 0 500 361.354">
  <g id="Feature-Thumb" transform="translate(0 -54.953)">
    <g id="Background_Complete" data-name="Background Complete">
      <g id="Groupe_17" data-name="Groupe 17">
        <rect id="Rectangle_12" data-name="Rectangle 12" width="500" height="0.25" transform="translate(0 382.398)" fill="#ebebeb"/>
        <rect id="Rectangle_13" data-name="Rectangle 13" width="33.122" height="0.25" transform="translate(52.459 391.922)" fill="#faf2ff"/>
        <rect id="Rectangle_14" data-name="Rectangle 14" width="55.416" height="0.25" transform="translate(171.14 389.208)" fill="#faf2ff"/>
        <rect id="Rectangle_15" data-name="Rectangle 15" width="19.192" height="0.25" transform="translate(91 397.861)" fill="#faf2ff"/>
        <rect id="Rectangle_16" data-name="Rectangle 16" width="43.193" height="0.25" transform="translate(385.46 391.797)" fill="#ebebeb"/>
        <rect id="Rectangle_17" data-name="Rectangle 17" width="6.333" height="0.25" transform="translate(437.556 391.797)" fill="#ebebeb"/>
        <rect id="Rectangle_18" data-name="Rectangle 18" width="46.838" height="0.25" transform="translate(277.213 395.306)" fill="#ebebeb"/>
        <path id="Tracé_12" data-name="Tracé 12" d="M237.014,337.8H43.915a5.715,5.715,0,0,1-5.708-5.708V60.66a5.714,5.714,0,0,1,5.708-5.707h193.1a5.714,5.714,0,0,1,5.707,5.707V332.092A5.715,5.715,0,0,1,237.014,337.8ZM43.915,55.2a5.463,5.463,0,0,0-5.458,5.457V332.092a5.464,5.464,0,0,0,5.458,5.458h193.1a5.463,5.463,0,0,0,5.457-5.458V60.66a5.463,5.463,0,0,0-5.457-5.457Z" fill="#faf2ff"/>
        <path id="Tracé_13" data-name="Tracé 13" d="M453.31,337.8h-193.1a5.714,5.714,0,0,1-5.707-5.708V60.66a5.713,5.713,0,0,1,5.707-5.707h193.1a5.714,5.714,0,0,1,5.709,5.707V332.092A5.715,5.715,0,0,1,453.31,337.8ZM260.212,55.2a5.463,5.463,0,0,0-5.457,5.457V332.092a5.463,5.463,0,0,0,5.457,5.458h193.1a5.464,5.464,0,0,0,5.459-5.458V60.66A5.464,5.464,0,0,0,453.31,55.2Z" fill="#ebebeb"/>
      </g>
      <g id="Groupe_26" data-name="Groupe 26">
        <g id="Groupe_21" data-name="Groupe 21">
          <g id="Groupe_19" data-name="Groupe 19">
            <rect id="Rectangle_19" data-name="Rectangle 19" width="193.058" height="138.592" transform="translate(104.783 74.394)" fill="#6a0cac"/>
            <path id="Tracé_14" data-name="Tracé 14" d="M286.854,212.986,237.75,74.394H200.9L250,212.986Z" fill="#6207a2"/>
            <path id="Tracé_15" data-name="Tracé 15" d="M187.763,212.986l-49.1-138.592H125.217l49.1,138.592Z" fill="#6207a2"/>
            <g id="Groupe_18" data-name="Groupe 18">
              <path id="Tracé_16" data-name="Tracé 16" d="M95.578,69.628H307.046a.86.86,0,0,1,.858.858h0a.86.86,0,0,1-.858.858H95.578a.86.86,0,0,1-.858-.858h0A.86.86,0,0,1,95.578,69.628Z" fill="#e0e0e0"/>
              <rect id="Rectangle_20" data-name="Rectangle 20" width="2.288" height="139.188" transform="translate(200.168 74.096)" fill="#f0f0f0"/>
              <rect id="Rectangle_21" data-name="Rectangle 21" width="1.144" height="139.188" transform="translate(199.024 74.096)" fill="#faf2ff"/>
              <rect id="Rectangle_22" data-name="Rectangle 22" width="2.288" height="195.726" transform="translate(103.449 144.834) rotate(-90)" fill="#faf2ff"/>
              <path id="Tracé_17" data-name="Tracé 17" d="M103.449,212.032h0V73.059H299.175V212.032h0v2.288H103.449Zm193.438,0V75.347H105.736V212.032Z" fill="#f0f0f0"/>
              <rect id="Rectangle_23" data-name="Rectangle 23" width="1.144" height="141.261" transform="translate(102.305 73.059)" fill="#e0e0e0"/>
            </g>
          </g>
          <g id="Groupe_20" data-name="Groupe 20">
            <path id="Tracé_18" data-name="Tracé 18" d="M131.83,67.531V230.288H90.51L98.088,67.531Z" fill="#faf2ff" opacity="0.5"/>
            <path id="Tracé_19" data-name="Tracé 19" d="M269.651,67.531V230.288h41.32L303.393,67.531Z" fill="#faf2ff" opacity="0.5"/>
          </g>
        </g>
        <g id="Groupe_24" data-name="Groupe 24">
          <g id="Groupe_23" data-name="Groupe 23">
            <g id="Groupe_22" data-name="Groupe 22">
              <rect id="Rectangle_24" data-name="Rectangle 24" width="15.759" height="127.83" transform="translate(61.924 249.789)" fill="#5a0497"/>
              <rect id="Rectangle_25" data-name="Rectangle 25" width="173.626" height="4.78" transform="translate(64.95 377.619)" fill="#5a0497"/>
              <rect id="Rectangle_26" data-name="Rectangle 26" width="163.919" height="127.83" transform="translate(241.602 377.619) rotate(180)" fill="#6209a0"/>
              <rect id="Rectangle_27" data-name="Rectangle 27" width="16.107" height="4.171" transform="translate(59.941 245.618)" fill="#5a0497"/>
              <rect id="Rectangle_28" data-name="Rectangle 28" width="167.537" height="4.171" transform="translate(243.585 249.789) rotate(180)" fill="#6209a0"/>
              <path id="Tracé_20" data-name="Tracé 20" d="M235.935,321.726H83.35V258.545H235.935ZM84.408,320.667H234.877V259.6H84.408Z" fill="#5a0497"/>
              <path id="Tracé_21" data-name="Tracé 21" d="M235.935,368.862H83.35v-40.81H235.935ZM84.408,367.8H234.877V329.11H84.408Z" fill="#5a0497"/>
              <rect id="Rectangle_29" data-name="Rectangle 29" width="111.47" height="3.393" rx="1.398" transform="translate(103.908 259.074)" fill="#5a0497"/>
              <rect id="Rectangle_30" data-name="Rectangle 30" width="111.47" height="3.393" rx="1.398" transform="translate(103.908 328.581)" fill="#5a0497"/>
            </g>
          </g>
        </g>
        <g id="Groupe_25" data-name="Groupe 25">
          <rect id="Rectangle_31" data-name="Rectangle 31" width="91.677" height="279.716" transform="translate(439.536 376.265) rotate(180)" fill="#6209a0"/>
          <rect id="Rectangle_32" data-name="Rectangle 32" width="2.909" height="279.716" transform="translate(344.95 96.548)" fill="#5a0497"/>
          <rect id="Rectangle_33" data-name="Rectangle 33" width="61.929" height="258.376" transform="translate(424.662 365.595) rotate(180)" fill="#6a0cac"/>
        </g>
      </g>
    </g>
    <g id="Character">
      <g id="Groupe_33" data-name="Groupe 33">
        <path id="Tracé_22" data-name="Tracé 22" d="M143.356,407.533l7.83-2.97-4.794-18.922-7.83,2.97Z" fill="#b55b52"/>
        <path id="Tracé_23" data-name="Tracé 23" d="M84.527,407.685H92.9l1.255-19.392H85.781Z" fill="#b55b52"/>
        <path id="Tracé_24" data-name="Tracé 24" d="M93.739,406.715H83.529a.687.687,0,0,0-.684.572L81.56,414.73a1.3,1.3,0,0,0,1.3,1.49c3.282-.057,5.67-.249,9.807-.249,2.545,0,10.234.264,13.749.264,3.437,0,3.8-3.475,2.346-3.79-6.522-1.412-11.481-3.358-13.639-5.215A2.127,2.127,0,0,0,93.739,406.715Z" fill="#263238"/>
        <path id="Tracé_25" data-name="Tracé 25" d="M150.787,403.677l-8.551,3.243a.731.731,0,0,0-.464.788l1.093,7.546a1.22,1.22,0,0,0,1.655.966c3.064-1.223,5.665-2.773,9.568-4.174a65.114,65.114,0,0,0,12.785-5.743c2.9-1.847,1.678-5.343.311-4.794-6.223,2.5-7.749,3.319-14.28,2.063A3.882,3.882,0,0,0,150.787,403.677Z" fill="#263238"/>
        <path id="Tracé_26" data-name="Tracé 26" d="M128.7,152.492c2.635,4.657,5.412,9.456,8.209,14.1,2.8,4.665,5.672,9.275,8.719,13.6.739,1.1,1.558,2.141,2.294,3.155a2.768,2.768,0,0,0,.65.754,2.419,2.419,0,0,0,1.519.238,10.508,10.508,0,0,0,2.8-.665,34.569,34.569,0,0,0,6.458-3.382c1.078-.709,2.173-1.44,3.245-2.216,1.056-.767,2.151-1.626,3.127-2.378l4.7,4.181a44.258,44.258,0,0,1-2.748,3.572c-.955,1.137-1.948,2.256-3.029,3.311a39.343,39.343,0,0,1-3.438,3.071,29.235,29.235,0,0,1-4.031,2.742,20.222,20.222,0,0,1-5.083,2.069,13.658,13.658,0,0,1-6.755-.02,12.7,12.7,0,0,1-6.163-3.891c-1-1.164-1.985-2.25-2.9-3.4a158.067,158.067,0,0,1-10.1-14.049c-3.092-4.825-5.949-9.655-8.653-14.788Z" fill="#b65b52"/>
        <g id="Groupe_27" data-name="Groupe 27">
          <path id="Tracé_27" data-name="Tracé 27" d="M113.844,152.877c-2.258,7.681,13.637,28.622,13.637,28.622l16.027-10.313A102.211,102.211,0,0,0,132.4,152.354C125.836,143.989,116.322,144.447,113.844,152.877Z" fill="#0c1bb8"/>
          <path id="Tracé_28" data-name="Tracé 28" d="M113.844,152.877c-2.258,7.681,13.637,28.622,13.637,28.622l16.027-10.313A102.211,102.211,0,0,0,132.4,152.354C125.836,143.989,116.322,144.447,113.844,152.877Z" opacity="0.2"/>
        </g>
        <path id="Tracé_29" data-name="Tracé 29" d="M123.613,161.894c3.3,1.409,8.148,9.348,10.673,15.232l-6.8,4.371a128.086,128.086,0,0,1-10.224-16.024C119.409,163.115,121.871,161.154,123.613,161.894Z" opacity="0.2"/>
        <path id="Tracé_30" data-name="Tracé 30" d="M164.73,178.306l2.937-8.223L176,174.06s-1.73,7.334-7.829,7.322Z" fill="#b55b52"/>
        <path id="Tracé_31" data-name="Tracé 31" d="M175.083,164.667l3.526,3.9-2.608,5.5-8.334-3.977Z" fill="#b55b52"/>
        <path id="Tracé_32" data-name="Tracé 32" d="M146.391,385.647l2.472,9.753-7.833,2.971-2.472-9.753Z" opacity="0.2"/>
        <path id="Tracé_33" data-name="Tracé 33" d="M85.779,388.3h8.377l-.651,10H85.128Z" opacity="0.2"/>
        <g id="Groupe_28" data-name="Groupe 28">
          <path id="Tracé_34" data-name="Tracé 34" d="M76.517,149.48c9.02,31.809,7.543,65.56,8.107,72.417,6.563-.235,31.283-1.167,44.759-1.677,7.6-47.415-6.051-73.806-6.051-73.806s-2.872-.558-6.777-.958c-1.226-.126-2.547-.236-3.922-.308-.76-.046-1.532-.07-2.315-.086a165.849,165.849,0,0,0-18.99,1.415c-1.191.148-2.4.327-3.574.518-1.088.186-2.155.383-3.16.585C80.035,148.488,76.517,149.48,76.517,149.48Z" fill="#0d1bb8"/>
          <path id="Tracé_35" data-name="Tracé 35" d="M76.517,149.48c9.02,31.809,7.543,65.56,8.107,72.417,6.563-.235,31.283-1.167,44.759-1.677,7.6-47.415-6.051-73.806-6.051-73.806s-2.872-.558-6.777-.958c-1.226-.126-2.547-.236-3.922-.308-.76-.046-1.532-.07-2.315-.086a165.849,165.849,0,0,0-18.99,1.415c-1.191.148-2.4.327-3.574.518-1.088.186-2.155.383-3.16.585C80.035,148.488,76.517,149.48,76.517,149.48Z" fill="#0d1bb8" opacity="0.2"/>
        </g>
        <path id="Tracé_36" data-name="Tracé 36" d="M86.046,163.126c.8,3.077-.114,17.119-3.328,20.583-.438-4.5-1.022-9.191-1.794-13.99Z" opacity="0.2"/>
        <path id="Tracé_37" data-name="Tracé 37" d="M91.621,124.956c1.652,6.02,3.681,17.124-.29,21.519,3.566,3.053,8.19,6.544,15.464,6.259s5.634-5.181,3.523-7.671c-6.934-1.12-7.134-6.188-6.3-11.023Z" fill="#b55b52"/>
        <g id="Groupe_29" data-name="Groupe 29">
          <path id="Tracé_38" data-name="Tracé 38" d="M106.98,151.7l1.321.893-4.82,1.4,1.242-2.231Z" fill="#407bff"/>
          <path id="Tracé_39" data-name="Tracé 39" d="M108.8,151.229l-.5,1.363,4.84,1.4-.327-2.589Z" fill="#407bff"/>
          <path id="Tracé_40" data-name="Tracé 40" d="M88.437,146.013l1.905-.956a1.831,1.831,0,0,1,1.914.162A38.015,38.015,0,0,0,106.98,151.7c-3.825,1.826-2.878,6.724-2.878,6.724S91.951,154.415,88.05,147.16A.85.85,0,0,1,88.437,146.013Z" fill="#fff"/>
          <path id="Tracé_41" data-name="Tracé 41" d="M112.442,144.752l-2.793-.421a.37.37,0,0,0-.357.581c.977,1.383,2.6,4.442-.493,6.317,3.826,1.826,5.015,6.294,5.015,6.294s4.98-5.374-.826-12.462A.885.885,0,0,0,112.442,144.752Z" fill="#fff"/>
        </g>
        <path id="Tracé_42" data-name="Tracé 42" d="M96.675,128.663l7.337,5.372a19.551,19.551,0,0,0-.335,3.414c-2.63-.183-6.418-2.774-6.9-5.478A9.181,9.181,0,0,1,96.675,128.663Z" opacity="0.2"/>
        <path id="Tracé_43" data-name="Tracé 43" d="M112.867,112.611c-.335,2.9-3.124,5.411-4.929,6.037l-2.248-12.659C110.741,102.429,113.338,108.527,112.867,112.611Z" fill="#263238"/>
        <path id="Tracé_44" data-name="Tracé 44" d="M89.091,116.1c1.456,8.182,1.892,13.045,6.541,16.795,6.994,5.641,16.731.7,17.749-7.757.917-7.608-1.618-19.71-10.062-22.06A11.334,11.334,0,0,0,89.091,116.1Z" fill="#b55b52"/>
        <path id="Tracé_45" data-name="Tracé 45" d="M90.646,121.618c3.789,2.014,5.459-2.513,5.491-4.347.052-2.923-1.214-6.129-2.723-7.3,7.316-.044,21.791-.362,18.14-7.332s-10.963-6.172-16.475-2.362c-2.913,2.014-12.333.261-10,5.695C80.17,108.578,84.43,118.315,90.646,121.618Z" fill="#263238"/>
        <path id="Tracé_46" data-name="Tracé 46" d="M85.885,105.52a5.979,5.979,0,0,1-3.611-1.229,3.424,3.424,0,0,0,3.2,2.649Z" fill="#263238"/>
        <path id="Tracé_47" data-name="Tracé 47" d="M86.014,122.831a7.905,7.905,0,0,0,4.565,3.945c2.636.852,3.24-1.565,2.6-4.11-.576-2.291-1.818-5.41-4.508-5.154C86.022,117.764,84.884,120.531,86.014,122.831Z" fill="#b55b52"/>
        <path id="Tracé_48" data-name="Tracé 48" d="M139.134,308.75c-3.4-25.33-9.751-88.526-9.751-88.526l-29.424,1.1s13.878,63.155,18.9,88.761S137.852,397.5,137.852,397.5l13.26-5.022S142.676,335.087,139.134,308.75Z" fill="#263238"/>
        <path id="Tracé_49" data-name="Tracé 49" d="M110.945,238.354A15.489,15.489,0,0,0,104.4,241.7c2.775,12.77,6.406,29.577,9.525,44.391C116.057,273.261,116.12,249.047,110.945,238.354Z" opacity="0.2"/>
        <path id="Tracé_50" data-name="Tracé 50" d="M113.507,220.819s-6.243,68.557-9.1,92.925c-3.131,26.686-7.042,82.614-7.042,82.614H82.025s-.636-49.465,1.358-75.587c2.271-29.755,1.244-98.866,1.244-98.866Z" fill="#263238"/>
        <path id="Tracé_51" data-name="Tracé 51" d="M99.4,396.69H81.34l-.38-5.4,20.164-.351Z" fill="#0d1bb8"/>
        <path id="Tracé_52" data-name="Tracé 52" d="M152.894,392.156l-15.8,5.992-1.936-5.1,17.559-6.967Z" fill="#0d1bb8"/>
        <path id="Tracé_53" data-name="Tracé 53" d="M101.856,116.964c.077.671.495,1.174.934,1.124s.731-.636.654-1.307-.5-1.174-.934-1.123S101.778,116.293,101.856,116.964Z" fill="#263238"/>
        <path id="Tracé_54" data-name="Tracé 54" d="M109.44,116.09c.077.671.495,1.174.934,1.124s.732-.636.654-1.307-.5-1.174-.934-1.123S109.363,115.419,109.44,116.09Z" fill="#263238"/>
        <path id="Tracé_55" data-name="Tracé 55" d="M107.067,116.7a24.175,24.175,0,0,0,3.867,5.369,3.893,3.893,0,0,1-3.136.971Z" fill="#a02724"/>
        <path id="Tracé_56" data-name="Tracé 56" d="M105.176,125.163a5.567,5.567,0,0,1-4.044-1.762.2.2,0,0,1,.306-.254,5.36,5.36,0,0,0,4.573,1.579.2.2,0,1,1,.045.394A6.373,6.373,0,0,1,105.176,125.163Z" fill="#263238"/>
        <path id="Tracé_57" data-name="Tracé 57" d="M99.235,114.784a.4.4,0,0,1-.334-.6,3.934,3.934,0,0,1,3.021-2,.4.4,0,0,1,.037.792h0a3.146,3.146,0,0,0-2.374,1.607A.4.4,0,0,1,99.235,114.784Z" fill="#263238"/>
        <path id="Tracé_58" data-name="Tracé 58" d="M112.407,113.105a.4.4,0,0,1-.327-.183,3.147,3.147,0,0,0-2.428-1.526.4.4,0,0,1,.01-.793,3.942,3.942,0,0,1,3.087,1.892.4.4,0,0,1-.342.61Z" fill="#263238"/>
        <g id="Groupe_30" data-name="Groupe 30">
          <path id="Tracé_59" data-name="Tracé 59" d="M96.581,408.178a10.086,10.086,0,0,1-2.206-.3.214.214,0,0,1-.158-.161.189.189,0,0,1,.081-.2c.3-.191,2.915-1.85,3.864-1.375a.673.673,0,0,1,.368.561,1.142,1.142,0,0,1-.358,1.048A2.442,2.442,0,0,1,96.581,408.178Zm-1.645-.579c1.436.285,2.527.233,2.966-.151a.775.775,0,0,0,.233-.72.256.256,0,0,0-.137-.233C97.5,406.248,96,406.964,94.936,407.6Z" fill="#407bff"/>
          <path id="Tracé_60" data-name="Tracé 60" d="M94.421,407.883a.211.211,0,0,1-.208-.214c0-.1.083-2.518,1.017-3.313a1.042,1.042,0,0,1,.832-.255h0a.689.689,0,0,1,.657.52c.223.933-1.361,2.768-2.2,3.238A.193.193,0,0,1,94.421,407.883Zm1.522-3.394a.669.669,0,0,0-.447.174,4.566,4.566,0,0,0-.859,2.623c.829-.654,1.828-2.04,1.7-2.592-.012-.05-.041-.168-.3-.2h0A.679.679,0,0,0,95.943,404.489Z" fill="#407bff"/>
          <path id="Tracé_61" data-name="Tracé 61" d="M151.967,404.467a.2.2,0,0,1-.153-.331c.286-.318,2.828-3.108,3.98-2.938a.629.629,0,0,1,.494.377h0a1.111,1.111,0,0,1-.006,1.034c-.57,1.086-2.931,1.629-4.288,1.856Zm3.691-2.881c-.668.019-2.128,1.317-3.145,2.38,1.838-.368,3.1-.932,3.418-1.542a.723.723,0,0,0,0-.681.237.237,0,0,0-.193-.153A.4.4,0,0,0,155.658,401.586Z" fill="#407bff"/>
          <path id="Tracé_62" data-name="Tracé 62" d="M151.967,404.467a.179.179,0,0,1-.056-.006.2.2,0,0,1-.141-.14c-.025-.092-.614-2.281.072-3.477a1.452,1.452,0,0,1,.908-.708h0c.529-.141.775.061.887.256.479.832-.751,3.235-1.535,4.017A.2.2,0,0,1,151.967,404.467Zm1.089-3.981a.876.876,0,0,0-.2.033h0a1.053,1.053,0,0,0-.666.523,4.65,4.65,0,0,0-.118,2.806c.745-.945,1.513-2.759,1.225-3.257C153.276,400.56,153.23,400.481,153.056,400.486Zm-.255-.158h0Z" fill="#407bff"/>
        </g>
        <g id="Groupe_32" data-name="Groupe 32">
          <path id="Tracé_63" data-name="Tracé 63" d="M85.724,161.318c-2.512,5.175-5.072,10.517-7.554,15.775-1.231,2.645-2.467,5.283-3.632,7.933L72.8,189l-.829,1.986-.207.5-.145.369c-.1.236-.169.476-.257.714a12.123,12.123,0,0,0-.328,6.083,20.9,20.9,0,0,0,2.637,6.652,41.292,41.292,0,0,0,4.761,6.445c.909,1.038,1.862,2.057,2.864,3.033.5.488,1.01.968,1.528,1.434.5.466,1.063.965,1.505,1.349L81,222.888a41.114,41.114,0,0,1-4.193-2.453c-1.329-.875-2.632-1.8-3.894-2.8a43.1,43.1,0,0,1-6.987-6.956,29.272,29.272,0,0,1-5.052-9.362,22.5,22.5,0,0,1-.484-11.576c.12-.476.227-.96.375-1.426l.385-1.24.71-2.2c.492-1.454.979-2.915,1.52-4.342,1.05-2.874,2.149-5.712,3.33-8.508,2.337-5.625,4.866-11.049,7.725-16.5Z" fill="#b65b52"/>
          <g id="Groupe_31" data-name="Groupe 31">
            <path id="Tracé_64" data-name="Tracé 64" d="M76.519,149.481c-7.641,2.393-15.154,28.3-15.154,28.3l17.678,7.737s5.718-12.519,9.006-22.33C91.631,152.5,85.774,146.583,76.519,149.481Z" fill="#0d1bb8"/>
            <path id="Tracé_65" data-name="Tracé 65" d="M76.519,149.481c-7.641,2.393-15.154,28.3-15.154,28.3l17.678,7.737s5.718-12.519,9.006-22.33C91.631,152.5,85.774,146.583,76.519,149.481Z" fill="#0d1bb8" opacity="0.2"/>
          </g>
          <path id="Tracé_66" data-name="Tracé 66" d="M82.463,215.915l7.311,4.346-7.111,7.079s-6.176-4.75-4.334-8.472Z" fill="#b55b52"/>
          <path id="Tracé_67" data-name="Tracé 67" d="M94.655,227.191l-7.333,5.137-4.659-4.988,7.111-7.079Z" fill="#b55b52"/>
        </g>
      </g>
    </g>
    <g id="Screen">
      <g id="Groupe_45" data-name="Groupe 45">
        <g id="Groupe_34" data-name="Groupe 34">
          <rect id="Rectangle_34" data-name="Rectangle 34" width="4.833" height="1.001" transform="matrix(0.072, -0.997, 0.997, 0.072, 448.047, 218.869)" fill="#407bff"/>
          <rect id="Rectangle_35" data-name="Rectangle 35" width="14.01" height="1.001" transform="translate(448.695 209.787) rotate(-85.856)" fill="#407bff"/>
          <path id="Tracé_68" data-name="Tracé 68" d="M422.324,352.96H177.387a12.532,12.532,0,0,1-12.633-13.608l12.96-180.8A14.9,14.9,0,0,1,192.3,144.947H437.234a12.532,12.532,0,0,1,12.632,13.608l-12.959,180.8A14.9,14.9,0,0,1,422.324,352.96Z" fill="#0d1bb8"/>
          <path id="Tracé_69" data-name="Tracé 69" d="M365.348,416.238h-79.5L271.673,318h79.5Z" fill="#0d1bb8"/>
          <path id="Tracé_70" data-name="Tracé 70" d="M352.724,410.384h-86l-1.708,5.854h86Z" fill="#0d1bb8"/>
          <path id="Tracé_71" data-name="Tracé 71" d="M355.374,365.29l-77.49-4.234L271.673,318h76.879Z" fill="#263238"/>
          <path id="Tracé_72" data-name="Tracé 72" d="M419.559,352.96H174.622a12.532,12.532,0,0,1-12.633-13.608l12.96-180.8a14.9,14.9,0,0,1,14.583-13.608H434.469A12.532,12.532,0,0,1,447.1,158.555l-12.959,180.8A14.9,14.9,0,0,1,419.559,352.96Z" fill="#263238"/>
          <rect id="Rectangle_36" data-name="Rectangle 36" width="103.984" height="0.956" transform="matrix(0.072, -0.997, 0.997, 0.072, 439.058, 264.028)" fill="#fff"/>
          <rect id="Rectangle_37" data-name="Rectangle 37" width="36.005" height="0.956" transform="translate(435.842 308.951) rotate(-85.901)" fill="#fff"/>
        </g>
        <g id="Groupe_44" data-name="Groupe 44">
          <g id="Groupe_35" data-name="Groupe 35">
            <path id="Tracé_73" data-name="Tracé 73" d="M419.041,349.576H175.625a9.754,9.754,0,0,1-9.833-10.591L178.7,158.923a11.6,11.6,0,0,1,11.351-10.592H433.466a9.755,9.755,0,0,1,9.833,10.592L430.392,338.985A11.6,11.6,0,0,1,419.041,349.576Z" fill="#fff"/>
            <path id="Tracé_74" data-name="Tracé 74" d="M419.041,349.576H175.625a9.754,9.754,0,0,1-9.833-10.591L178.7,158.923a11.6,11.6,0,0,1,11.351-10.592H433.466a9.755,9.755,0,0,1,9.833,10.592L430.392,338.985A11.6,11.6,0,0,1,419.041,349.576Z" fill="#faf2ff"/>
            <path id="Tracé_75" data-name="Tracé 75" d="M238.063,341.6H181.215a4.713,4.713,0,0,1-4.75-5.118l12.547-175.049a5.6,5.6,0,0,1,5.484-5.117h56.848a4.712,4.712,0,0,1,4.75,5.117L243.547,336.478A5.6,5.6,0,0,1,238.063,341.6Z" fill="#6a0cac"/>
          </g>
          <path id="Tracé_76" data-name="Tracé 76" d="M235.862,180.989H206.44a4.245,4.245,0,0,1-4.279-4.609l.324-4.512a5.046,5.046,0,0,1,4.94-4.609h29.421a4.244,4.244,0,0,1,4.279,4.609l-.323,4.512A5.048,5.048,0,0,1,235.862,180.989Z" fill="#407bff" opacity="0.4"/>
          <g id="Groupe_36" data-name="Groupe 36">
            <path id="Tracé_77" data-name="Tracé 77" d="M217.155,251.8H172.237a7.406,7.406,0,0,1-7.465-8.042l3.219-44.918a8.807,8.807,0,0,1,8.619-8.042h44.917a7.407,7.407,0,0,1,7.466,8.042l-3.22,44.918A8.806,8.806,0,0,1,217.155,251.8Z" fill="#0d1bb8"/>
            <path id="Tracé_78" data-name="Tracé 78" d="M223.6,214.971a3.357,3.357,0,0,0-3.285,3.065l-.467,6.522a2.822,2.822,0,0,0,2.845,3.065h4.56a.83.83,0,0,0,.815-.76l.8-11.132a.7.7,0,0,0-.706-.76Z" fill="#fff"/>
            <path id="Tracé_79" data-name="Tracé 79" d="M206.264,202.228H177.951A1.132,1.132,0,0,1,176.81,201h0a1.346,1.346,0,0,1,1.317-1.229H206.44A1.132,1.132,0,0,1,207.581,201h0A1.346,1.346,0,0,1,206.264,202.228Z" fill="#fff"/>
            <path id="Tracé_80" data-name="Tracé 80" d="M205.815,208.483H177.5a1.131,1.131,0,0,1-1.14-1.229h0a1.345,1.345,0,0,1,1.317-1.229h28.312a1.132,1.132,0,0,1,1.141,1.229h0A1.345,1.345,0,0,1,205.815,208.483Z" fill="#fff"/>
            <path id="Tracé_81" data-name="Tracé 81" d="M195.584,214.738h-18.53a1.132,1.132,0,0,1-1.141-1.229h0a1.346,1.346,0,0,1,1.317-1.229h18.53a1.132,1.132,0,0,1,1.141,1.229h0A1.346,1.346,0,0,1,195.584,214.738Z" fill="#fff"/>
            <path id="Tracé_82" data-name="Tracé 82" d="M206.337,244.54H178.946a4.841,4.841,0,0,1-4.88-5.257l1.031-14.391a5.757,5.757,0,0,1,5.634-5.256h27.392a4.841,4.841,0,0,1,4.88,5.256l-1.032,14.391A5.755,5.755,0,0,1,206.337,244.54Z" fill="#faf2ff" opacity="0.5"/>
          </g>
          <g id="Groupe_37" data-name="Groupe 37">
            <path id="Tracé_83" data-name="Tracé 83" d="M231.911,268.621H197.829a2.1,2.1,0,0,1-2.116-2.279h0a2.5,2.5,0,0,1,2.443-2.279h34.082a2.1,2.1,0,0,1,2.116,2.279h0A2.5,2.5,0,0,1,231.911,268.621Z" fill="#faf2ff" opacity="0.4"/>
            <path id="Tracé_84" data-name="Tracé 84" d="M225.042,277.567H203.415a2.1,2.1,0,0,1-2.116-2.279h0a2.5,2.5,0,0,1,2.443-2.28h21.627a2.1,2.1,0,0,1,2.116,2.28h0A2.5,2.5,0,0,1,225.042,277.567Z" fill="#fff" opacity="0.8"/>
            <path id="Tracé_85" data-name="Tracé 85" d="M230.141,293.308H196.059a2.1,2.1,0,0,1-2.116-2.279h0a2.5,2.5,0,0,1,2.443-2.279h34.082a2.1,2.1,0,0,1,2.116,2.279h0A2.5,2.5,0,0,1,230.141,293.308Z" fill="#faf2ff" opacity="0.4"/>
            <path id="Tracé_86" data-name="Tracé 86" d="M223.273,302.254H201.646a2.1,2.1,0,0,1-2.116-2.279h0a2.5,2.5,0,0,1,2.442-2.279H223.6a2.1,2.1,0,0,1,2.116,2.279h0A2.5,2.5,0,0,1,223.273,302.254Z" fill="#fff" opacity="0.8"/>
            <path id="Tracé_87" data-name="Tracé 87" d="M228.372,317.995H194.29a2.1,2.1,0,0,1-2.116-2.279h0a2.5,2.5,0,0,1,2.443-2.279H228.7a2.1,2.1,0,0,1,2.116,2.279h0A2.5,2.5,0,0,1,228.372,317.995Z" fill="#faf2ff" opacity="0.4"/>
            <path id="Tracé_88" data-name="Tracé 88" d="M221.5,326.942H199.876a2.1,2.1,0,0,1-2.116-2.28h0a2.5,2.5,0,0,1,2.443-2.279H221.83a2.1,2.1,0,0,1,2.116,2.279h0A2.5,2.5,0,0,1,221.5,326.942Z" fill="#fff" opacity="0.8"/>
          </g>
          <g id="Groupe_39" data-name="Groupe 39">
            <path id="Tracé_89" data-name="Tracé 89" d="M421.682,290.266c1.478-2.254,4.865-1.3,4.678,1.309l-3.28,45.75c-.169,2.357-1.948,4.272-3.969,4.272H254.275c-2.021,0-3.526-1.915-3.357-4.272l1.949-27.182a5.9,5.9,0,0,1,7.423-5.237c9.29,2.9,17.251,1.2,24.649-2.472,15.824-7.856,29.063-24.715,47.255-24.715.7,0,1.384.018,2.052.062,27.06,1.633,35.3,35.244,56.267,35.244,6.2,0,11.852-2.674,16.777-6.487C413.322,301.873,418.247,295.505,421.682,290.266Z" fill="#6a0cac" opacity="0.5"/>
            <path id="Tracé_90" data-name="Tracé 90" d="M425.1,309.115l-2.022,28.21c-.169,2.357-1.948,4.272-3.969,4.272H254.275c-2.021,0-3.526-1.915-3.357-4.272l4.018-56.057c.275-3.84,5.308-5.455,7.345-2.348,5.259,8.023,13.351,18.386,22.658,23.514a23.167,23.167,0,0,0,11.134,3.151c13.319,0,24.646-15.8,38.173-27.8,8.295-7.361,17.415-13.3,28.324-13.3,22.773,0,26.132,37,44.72,42.059,3.584.98,7.73.768,12.694-1.13A3.693,3.693,0,0,1,425.1,309.115Z" fill="#6a0cac" opacity="0.5"/>
            <g id="Groupe_38" data-name="Groupe 38" opacity="0.8">
              <path id="Tracé_91" data-name="Tracé 91" d="M425.91,298.18a.367.367,0,0,1-.24-.1.25.25,0,0,1-.07-.11.309.309,0,0,1-.031-.13.328.328,0,0,1,.1-.24.334.334,0,0,1,.479,0,.308.308,0,0,1,.1.24.535.535,0,0,1-.021.13.4.4,0,0,1-.08.11A.345.345,0,0,1,425.91,298.18Z" fill="#fff"/>
              <path id="Tracé_92" data-name="Tracé 92" d="M265.64,321.609a.336.336,0,0,1-.34-.339h0a.335.335,0,0,1,.34-.33v-.01a.343.343,0,0,1,.339.34h0a.345.345,0,0,1-.339.35h0Zm-3.43-.189h.01a.333.333,0,0,1-.31-.37h0a.338.338,0,0,1,.38-.3h0a.337.337,0,0,1,.3.37h0a.346.346,0,0,1-.34.31h0A.074.074,0,0,1,262.21,321.42Zm6.47-.3a.34.34,0,0,1,.3-.38h0a.339.339,0,0,1,.38.3h0a.34.34,0,0,1-.3.38h-.04A.345.345,0,0,1,268.68,321.12Zm-9.85-.221a.358.358,0,0,1-.27-.409h0a.36.36,0,0,1,.41-.27h0a.361.361,0,0,1,.27.41h0a.351.351,0,0,1-.341.269h-.069Zm13.19-.339a.339.339,0,0,1,.25-.42h0a.349.349,0,0,1,.41.25h0a.353.353,0,0,1-.25.42h0v-.01h0a.251.251,0,0,1-.08.01h0A.325.325,0,0,1,272.02,320.56Zm109.37.14a.337.337,0,0,1-.34-.341h0a.343.343,0,0,1,.34-.339h0a.336.336,0,0,1,.339.339h0a.337.337,0,0,1-.339.341Zm3.05-.48a.331.331,0,0,1,.3-.37h0a.332.332,0,0,1,.38.3h0a.346.346,0,0,1-.31.38h-.03A.344.344,0,0,1,384.44,320.22Zm-6.47.27a.332.332,0,0,1-.29-.381h0a.34.34,0,0,1,.38-.3h0a.35.35,0,0,1,.3.38h0a.351.351,0,0,1-.339.31h0A.09.09,0,0,1,377.97,320.49Zm-122.46-.41a.345.345,0,0,1-.24-.42h0a.355.355,0,0,1,.43-.24h0a.35.35,0,0,1,.23.43h0a.333.333,0,0,1-.33.24h0A.274.274,0,0,1,255.51,320.08Zm132.29-.33a.33.33,0,0,1,.269-.4h0a.339.339,0,0,1,.4.27h0a.339.339,0,0,1-.27.4h0c-.02,0-.04.009-.06.009h0A.351.351,0,0,1,387.8,319.75Zm-13.191.12a.326.326,0,0,1-.25-.41h0a.339.339,0,0,1,.411-.25h0a.344.344,0,0,1,.25.41h0a.342.342,0,0,1-.33.26h0A.2.2,0,0,1,374.609,319.87Zm-99.349-.28a.334.334,0,0,1,.2-.441h0a.343.343,0,0,1,.439.191h0a.338.338,0,0,1-.2.439h0a.256.256,0,0,1-.12.031h0A.348.348,0,0,1,275.26,319.59ZM391.109,319a.346.346,0,0,1,.241-.431h0a.346.346,0,0,1,.42.241h0a.344.344,0,0,1-.24.419h0a.268.268,0,0,1-.09.021h0A.344.344,0,0,1,391.109,319Zm-19.779-.12h0a.338.338,0,0,1-.21-.43h0a.35.35,0,0,1,.44-.21h0a.35.35,0,0,1,.21.44h0a.347.347,0,0,1-.33.219h0A.2.2,0,0,1,371.33,318.88Zm-92.96-.64a.342.342,0,0,1,.15-.461h0a.35.35,0,0,1,.459.161h0a.334.334,0,0,1-.149.45h0a.3.3,0,0,1-.16.04h0A.342.342,0,0,1,278.37,318.24ZM394.359,318a.332.332,0,0,1,.2-.431l.009-.009a.348.348,0,0,1,.431.21h0a.346.346,0,0,1-.21.44h0a.423.423,0,0,1-.11.019h0A.344.344,0,0,1,394.359,318Zm-26.189-.42h0a.337.337,0,0,1-.17-.45h0a.349.349,0,0,1,.45-.17h0a.34.34,0,0,1,.17.46h0a.353.353,0,0,1-.31.2h0A.236.236,0,0,1,368.17,317.58Zm29.36-.78a.336.336,0,0,1,.19-.441h0a.322.322,0,0,1,.44.181h0a.336.336,0,0,1-.181.45h0a.289.289,0,0,1-.129.02h0A.349.349,0,0,1,397.53,316.8Zm-116.2-.2a.352.352,0,0,1,.11-.48h0a.341.341,0,0,1,.47.109h0a.342.342,0,0,1-.11.471h0a.3.3,0,0,1-.18.06h0A.361.361,0,0,1,281.33,316.6Zm83.79-.55h0a.347.347,0,0,1-.141-.47h0a.352.352,0,0,1,.471-.13h0a.34.34,0,0,1,.13.46h0a.351.351,0,0,1-.3.18h0A.489.489,0,0,1,365.12,316.05Zm35.52-.62a.337.337,0,0,1,.16-.451h0a.348.348,0,0,1,.46.161h0a.34.34,0,0,1-.17.45h0l.01.01h0a.4.4,0,0,1-.15.03h0A.335.335,0,0,1,400.64,315.43Zm-116.491-.71a.35.35,0,0,1,.08-.48h0a.349.349,0,0,1,.481.07h0a.35.35,0,0,1-.08.48h0a.374.374,0,0,1-.2.069h0A.351.351,0,0,1,284.149,314.72Zm78.021-.38v-.01h0a.328.328,0,0,1-.11-.46h0a.321.321,0,0,1,.46-.12h0a.336.336,0,0,1,.12.47h0a.35.35,0,0,1-.29.17h0A.374.374,0,0,1,362.17,314.34Zm41.51-.43a.336.336,0,0,1,.139-.46h0a.346.346,0,0,1,.461.14h0a.348.348,0,0,1-.14.47h0a.471.471,0,0,1-.161.04h0A.34.34,0,0,1,403.68,313.91Zm-116.81-1.24a.337.337,0,0,1,.05-.48h0a.344.344,0,0,1,.479.05h0a.356.356,0,0,1-.049.489h0a.361.361,0,0,1-.22.071h0A.3.3,0,0,1,286.87,312.67Zm72.42-.15v-.01h0a.338.338,0,0,1-.1-.47h0a.352.352,0,0,1,.48-.1h0a.351.351,0,0,1,.1.47h0a.337.337,0,0,1-.291.159h0A.412.412,0,0,1,359.29,312.52Zm47.359-.25a.342.342,0,0,1,.121-.47h0a.353.353,0,0,1,.47.12h0a.353.353,0,0,1-.12.47h0a.407.407,0,0,1-.18.05h0A.338.338,0,0,1,406.649,312.27Zm-50.189-1.64a.351.351,0,0,1-.09-.481h0a.36.36,0,0,1,.48-.089h0a.36.36,0,0,1,.09.48h0a.352.352,0,0,1-.291.15h0A.353.353,0,0,1,356.46,310.63Zm53.09-.12a.357.357,0,0,1,.11-.481h0a.342.342,0,0,1,.47.111h0a.341.341,0,0,1-.11.469h0a.28.28,0,0,1-.18.061h0A.363.363,0,0,1,409.55,310.51Zm-120.05.019a.343.343,0,0,1,.04-.479h0a.357.357,0,0,1,.49.04h0a.336.336,0,0,1-.051.479h0a.293.293,0,0,1-.219.08h0A.35.35,0,0,1,289.5,310.529Zm122.9-1.88a.348.348,0,0,1,.08-.479h0a.342.342,0,0,1,.481.09h0a.337.337,0,0,1-.09.469h0a.347.347,0,0,1-.19.061h0A.337.337,0,0,1,412.4,308.649Zm-58.75.08a.33.33,0,0,1-.089-.469h0a.338.338,0,0,1,.47-.1h0a.342.342,0,0,1,.09.48h0a.322.322,0,0,1-.28.15h0A.352.352,0,0,1,353.649,308.729Zm-61.54-.379a.329.329,0,0,1,.04-.48h0a.347.347,0,0,1,.481.04h0a.346.346,0,0,1-.04.48h0a.316.316,0,0,1-.22.08h0A.326.326,0,0,1,292.109,308.35Zm58.721-1.5a.335.335,0,0,1-.1-.47h0a.334.334,0,0,1,.471-.1h0a.342.342,0,0,1,.1.471h0a.321.321,0,0,1-.28.149h0A.319.319,0,0,1,350.83,306.85Zm64.35-.16a.327.327,0,0,1,.07-.47h0a.345.345,0,0,1,.479.07h0a.348.348,0,0,1-.08.48h0a.355.355,0,0,1-.2.06h0A.308.308,0,0,1,415.18,306.69Zm-120.46-.51a.337.337,0,0,1,.05-.48h0a.345.345,0,0,1,.48.05h0a.335.335,0,0,1-.05.479h0a.3.3,0,0,1-.221.081h0A.33.33,0,0,1,294.72,306.18Zm53.259-1.16a.341.341,0,0,1-.109-.47h0a.341.341,0,0,1,.47-.11h0a.341.341,0,0,1,.11.47h0a.348.348,0,0,1-.29.17h0A.3.3,0,0,1,347.979,305.02Zm69.92-.36a.338.338,0,0,1,.061-.48h0a.338.338,0,0,1,.48.06h0a.357.357,0,0,1-.06.48h-.01a.306.306,0,0,1-.2.07h0A.34.34,0,0,1,417.9,304.66Zm-120.519-.58a.347.347,0,0,1,.07-.48h0a.349.349,0,0,1,.48.07h0a.347.347,0,0,1-.071.479h0a.362.362,0,0,1-.2.071h0A.35.35,0,0,1,297.38,304.08Zm47.689-.79a.341.341,0,0,1-.119-.471h0a.331.331,0,0,1,.46-.119h0a.325.325,0,0,1,.13.46h0a.352.352,0,0,1-.3.18h0A.43.43,0,0,1,345.069,303.29Zm75.481-.75a.338.338,0,0,1,.05-.48h0a.337.337,0,0,1,.48.049h0a.347.347,0,0,1-.04.481h0a.4.4,0,0,1-.221.08h0A.335.335,0,0,1,420.55,302.54Zm-120.41-.44a.341.341,0,0,1,.089-.48h0a.353.353,0,0,1,.481.1h0a.34.34,0,0,1-.1.47h0a.331.331,0,0,1-.189.06h0A.346.346,0,0,1,300.14,302.1Zm41.96-.42a.34.34,0,0,1-.14-.46h0a.345.345,0,0,1,.46-.151h0a.369.369,0,0,1,.149.471h0a.365.365,0,0,1-.309.18h0A.314.314,0,0,1,342.1,301.68Zm81.049-1.33a.346.346,0,0,1,.031-.48h.01a.346.346,0,0,1,.48.029h0a.347.347,0,0,1-.04.481h0a.312.312,0,0,1-.22.09h0A.34.34,0,0,1,423.149,300.35Zm-120.139-.06a.34.34,0,0,1,.13-.471h0a.342.342,0,0,1,.46.131h0a.345.345,0,0,1-.13.47h.009a.377.377,0,0,1-.169.04h0A.341.341,0,0,1,303.01,300.29Zm36.05-.061h0a.34.34,0,0,1-.17-.45h0a.337.337,0,0,1,.45-.17h0a.335.335,0,0,1,.17.451h0a.342.342,0,0,1-.31.2h0A.331.331,0,0,1,339.06,300.229Zm-3.12-1.269a.333.333,0,0,1-.2-.44h0a.35.35,0,0,1,.44-.2h0a.355.355,0,0,1,.2.441h0a.334.334,0,0,1-.32.219h0A.263.263,0,0,1,335.94,298.96Zm-29.93-.24a.346.346,0,0,1,.17-.45h0a.343.343,0,0,1,.46.17h0a.345.345,0,0,1-.18.45h0a.321.321,0,0,1-.141.03h0A.334.334,0,0,1,306.01,298.72Zm26.73-.81a.35.35,0,0,1-.23-.431h0a.35.35,0,0,1,.43-.229h0a.345.345,0,0,1,.23.43h0a.356.356,0,0,1-.33.24h0A.375.375,0,0,1,332.74,297.91Zm-23.591-.47a.341.341,0,0,1,.221-.43h0a.34.34,0,0,1,.43.219h0a.342.342,0,0,1-.22.431h0a.359.359,0,0,1-.11.02h0A.341.341,0,0,1,309.149,297.44Zm20.33-.36a.34.34,0,0,1-.259-.4h0a.331.331,0,0,1,.41-.26h0a.33.33,0,0,1,.26.4h0a.345.345,0,0,1-.34.271h0A.2.2,0,0,1,329.479,297.08Zm-17.08-.57a.344.344,0,0,1,.271-.41h0a.338.338,0,0,1,.4.259h0a.338.338,0,0,1-.259.411h0c-.02,0-.05.009-.07.009h0A.353.353,0,0,1,312.4,296.51Zm13.771-.01h0a.348.348,0,0,1-.29-.391h0a.332.332,0,0,1,.38-.29h.01a.351.351,0,0,1,.29.391h0a.353.353,0,0,1-.34.29h-.05Zm-10.43-.57a.337.337,0,0,1,.3-.37h0a.333.333,0,0,1,.38.3h0a.354.354,0,0,1-.311.381h-.029A.346.346,0,0,1,315.74,295.93Zm7.079.219h.011a.331.331,0,0,1-.32-.359h0a.338.338,0,0,1,.36-.32h0a.346.346,0,0,1,.32.37h0a.34.34,0,0,1-.34.32h0C322.84,296.16,322.83,296.149,322.819,296.149Zm-3.7-.439a.331.331,0,0,1,.34-.34h0a.336.336,0,0,1,.34.34h0a.338.338,0,0,1-.34.34h0A.338.338,0,0,1,319.12,295.71Z" fill="#fff"/>
              <path id="Tracé_93" data-name="Tracé 93" d="M252.25,319.01a.3.3,0,0,1-.13-.031.265.265,0,0,1-.11-.08.2.2,0,0,1-.07-.109.277.277,0,0,1-.03-.13.367.367,0,0,1,.1-.24.25.25,0,0,1,.11-.07.3.3,0,0,1,.26,0,.2.2,0,0,1,.11.07.323.323,0,0,1,.1.24.263.263,0,0,1-.021.13.211.211,0,0,1-.079.109.344.344,0,0,1-.24.111Z" fill="#fff"/>
            </g>
          </g>
          <g id="Groupe_42" data-name="Groupe 42">
            <g id="Groupe_40" data-name="Groupe 40">
              <path id="Tracé_94" data-name="Tracé 94" d="M307.085,216.607h0l-2.336-2.515a22.9,22.9,0,0,1-15.564,6.258,19.558,19.558,0,0,1-19.513-15.841l-3.5.92h0l-3.2.841A25.835,25.835,0,0,0,269.36,218.9c10.15,10.933,28.141,10.933,39.858,0Z" fill="#fff"/>
              <path id="Tracé_95" data-name="Tracé 95" d="M312.075,179.047l-3.056,2.851h0l-2.11,1.97a19.891,19.891,0,0,1,5.182,15.108,23.009,23.009,0,0,1-7.342,15.116l1.829,1.969h0l2.64,2.844a30.427,30.427,0,0,0,9.684-19.929A26.357,26.357,0,0,0,312.075,179.047Z" fill="#0d1bb8"/>
              <path id="Tracé_96" data-name="Tracé 96" d="M312.075,179.047c-10.15-10.926-28.142-10.926-39.858,0a29.817,29.817,0,0,0-9.246,27.223l3.958-1.04h0l2.743-.721a21.211,21.211,0,0,1-.321-5.533,23.328,23.328,0,0,1,22.9-21.366,19.791,19.791,0,0,1,14.66,6.258l2.7-2.523h0Z" fill="#6a0cac"/>
            </g>
            <g id="Groupe_41" data-name="Groupe 41">
              <path id="Tracé_97" data-name="Tracé 97" d="M340.8,216.608h0l2.7-2.516a19.912,19.912,0,0,1-5.175-15.115,23.431,23.431,0,0,1,17.321-20.649l-.674-3.436h0l-.616-3.139a30.871,30.871,0,0,0-13.157,7.294c-11.718,10.934-13.007,28.925-2.857,39.858Z" fill="#fff"/>
              <path id="Tracé_98" data-name="Tracé 98" d="M378.192,218.9l-2.647-2.851h0l-1.828-1.969a22.871,22.871,0,0,1-15.557,6.265,19.8,19.8,0,0,1-14.667-6.258l-2.111,1.97h0l-3.047,2.843a26.2,26.2,0,0,0,19.337,8.256A30.288,30.288,0,0,0,378.192,218.9Z" fill="#0d1bb8"/>
              <path id="Tracé_99" data-name="Tracé 99" d="M378.192,218.9c11.709-10.933,13-28.924,2.857-39.858a26.878,26.878,0,0,0-26.7-7.294l.762,3.884h0l.528,2.692a22.21,22.21,0,0,1,5.584-.718,19.625,19.625,0,0,1,19.835,21.367,22.991,22.991,0,0,1-7.341,15.108l2.342,2.523h0Z" fill="#6a0cac"/>
            </g>
          </g>
          <path id="Tracé_100" data-name="Tracé 100" d="M425.422,173.3a1.963,1.963,0,0,1,1.987,2.143L426.173,192.7a2.512,2.512,0,0,1-2.43,2.269H406.494a1.962,1.962,0,0,1-1.986-2.143l1.236-17.248a2.511,2.511,0,0,1,2.429-2.27h17.249m0-.882H408.173a3.382,3.382,0,0,0-3.309,3.088l-1.236,17.249a2.843,2.843,0,0,0,2.866,3.088h17.249a3.381,3.381,0,0,0,3.31-3.088l1.236-17.249a2.844,2.844,0,0,0-2.867-3.088Z" fill="#407bff" opacity="0.3"/>
          <path id="Tracé_101" data-name="Tracé 101" d="M423.3,202.986a1.961,1.961,0,0,1,1.986,2.142l-1.236,17.249a2.51,2.51,0,0,1-2.429,2.269H404.367a1.96,1.96,0,0,1-1.986-2.143l1.236-17.248a2.51,2.51,0,0,1,2.429-2.269H423.3m0-.883H406.046a3.38,3.38,0,0,0-3.309,3.088L401.5,222.44a2.844,2.844,0,0,0,2.867,3.089h17.249a3.381,3.381,0,0,0,3.309-3.089l1.237-17.249A2.844,2.844,0,0,0,423.3,202.1Z" fill="#407bff" opacity="0.3"/>
          <path id="Tracé_102" data-name="Tracé 102" d="M398.042,298.429a1.64,1.64,0,0,1,1.669,1.8,2.1,2.1,0,0,1-2.062,1.927,1.64,1.64,0,0,1-1.669-1.8,2.1,2.1,0,0,1,2.062-1.926m0-.883a3,3,0,0,0-2.943,2.746,2.522,2.522,0,0,0,2.55,2.746,3,3,0,0,0,2.942-2.746,2.522,2.522,0,0,0-2.549-2.746Z" fill="#407bff"/>
          <g id="Groupe_43" data-name="Groupe 43">
            <path id="Tracé_103" data-name="Tracé 103" d="M398.262,297.561l-.439-.031.063-.88.439.031Z" fill="#407bff"/>
            <path id="Tracé_104" data-name="Tracé 104" d="M398.454,294.875l-.439-.031.13-1.806.439.031Zm.259-3.611-.44-.032.13-1.806.44.031Zm.259-3.613-.44-.031.13-1.8.44.031Zm.258-3.611-.439-.031.13-1.807.439.031Zm.259-3.612-.439-.032.13-1.8.439.031Zm.26-3.612-.439-.031.129-1.806.439.031Zm.259-3.612-.44-.031.129-1.806.44.031Zm.259-3.611-.44-.032.129-1.806.44.031Zm.258-3.613-.439-.031.13-1.8.439.031Zm.259-3.611-.439-.031.13-1.807.439.032Zm.259-3.612-.439-.031.129-1.806.44.031Z" fill="#407bff"/>
            <rect id="Rectangle_38" data-name="Rectangle 38" width="0.882" height="0.441" transform="translate(400.863 255.114) rotate(-85.938)" fill="#407bff"/>
          </g>
          <path id="Tracé_105" data-name="Tracé 105" d="M419.784,254.729H261.436a3.114,3.114,0,0,1-3.131-3.375l.781-10.9a3.613,3.613,0,0,1,3.542-3.306H420.977a3.113,3.113,0,0,1,3.131,3.374l-.781,10.9A3.615,3.615,0,0,1,419.784,254.729ZM262.628,238.1a2.642,2.642,0,0,0-2.589,2.417l-.781,10.9a2.156,2.156,0,0,0,2.178,2.348H419.784a2.642,2.642,0,0,0,2.59-2.417l.781-10.9a2.158,2.158,0,0,0-2.178-2.349Z" fill="#407bff"/>
          <path id="Tracé_106" data-name="Tracé 106" d="M416.385,244.176h-150.1a1.366,1.366,0,0,1-1.377-1.483h0a1.624,1.624,0,0,1,1.589-1.484H416.6a1.366,1.366,0,0,1,1.377,1.484h0A1.624,1.624,0,0,1,416.385,244.176Z" fill="#fff" fill-rule="evenodd" opacity="0.8"/>
          <path id="Tracé_107" data-name="Tracé 107" d="M391.369,250.431H265.832a1.367,1.367,0,0,1-1.377-1.483h0a1.625,1.625,0,0,1,1.59-1.484H391.582a1.367,1.367,0,0,1,1.377,1.484h0A1.625,1.625,0,0,1,391.369,250.431Z" fill="#fff" fill-rule="evenodd" opacity="0.8"/>
        </g>
      </g>
    </g>
  </g>
</svg>
